HIERARCHY
ROOT hip
{
	OFFSET 0.000000 0.000000 0.000000 
	CHANNELS 6 Xposition Yposition Zposition Xrotation Zrotation Yrotation
	JOINT abdomen
	{
		OFFSET 0.000000 3.402643 0.000000 
		CHANNELS 3 Xrotation Zrotation Yrotation
		JOINT chest
		{
			OFFSET 0.000000 8.438565 -0.680529 
			CHANNELS 3 Xrotation Zrotation Yrotation
			JOINT neck
			{
				OFFSET 0.000000 10.207942 -0.272212 
				CHANNELS 3 Xrotation Zrotation Yrotation
				JOINT head
				{
					OFFSET 0.000000 3.130431 0.000000 
					CHANNELS 3 Xrotation Zrotation Yrotation
					End Site
					{
						OFFSET 0.000000 3.130435 0.000000 
					}
				}
			}
			JOINT lCollar
			{
				OFFSET 3.470700 6.669187 -0.816635 
				CHANNELS 3 Yrotation Zrotation Xrotation
				JOINT lShldr
				{
					OFFSET 3.198488 0.000000 0.000000 
					CHANNELS 3 Zrotation Yrotation Xrotation
					JOINT lForeArm
					{
						OFFSET 10.139888 0.000000 0.000000 
						CHANNELS 3 Yrotation Zrotation Xrotation
						JOINT lHand
						{
							OFFSET 8.370511 0.000000 0.000000 
							CHANNELS 3 Zrotation Yrotation Xrotation
							End Site
							{
								OFFSET 4.083176 0.000000 0.000000 
							}
						}
					}
				}
			}
			JOINT rCollar
			{
				OFFSET -3.470700 6.669187 -0.816635 
				CHANNELS 3 Yrotation Zrotation Xrotation
				JOINT rShldr
				{
					OFFSET -3.198488 0.000000 0.000000 
					CHANNELS 3 Zrotation Yrotation Xrotation
					JOINT rForeArm
					{
						OFFSET -10.139888 0.000000 0.000000 
						CHANNELS 3 Yrotation Zrotation Xrotation
						JOINT rHand
						{
							OFFSET -8.370511 0.000000 0.000000 
							CHANNELS 3 Zrotation Yrotation Xrotation
							End Site
							{
								OFFSET -4.083176 0.000000 0.000000 
							}
						}
					}
				}
			}
		}
	}
	JOINT lThigh
	{
		OFFSET 5.308129 -1.633274 1.361059 
		CHANNELS 3 Xrotation Zrotation Yrotation
		JOINT lShin
		{
			OFFSET -2.041588 -20.007561 0.000000 
			CHANNELS 3 Xrotation Zrotation Yrotation
			JOINT lFoot
			{
				OFFSET 0.000000 -19.190928 -1.224953 
				CHANNELS 3 Xrotation Yrotation Zrotation
				End Site
				{
					OFFSET 0.000000 -2.449906 4.627600 
				}
			}
		}
	}
	JOINT rThigh
	{
		OFFSET -5.308129 -1.633274 1.361059 
		CHANNELS 3 Xrotation Zrotation Yrotation
		JOINT rShin
		{
			OFFSET 2.041588 -20.007561 0.000000 
			CHANNELS 3 Xrotation Zrotation Yrotation
			JOINT rFoot
			{
				OFFSET 0.000000 -19.190928 -1.224953 
				CHANNELS 3 Xrotation Yrotation Zrotation
				End Site
				{
					OFFSET 0.000000 -2.449906 4.627600 
				}
			}
		}
	}
}
MOTION
Frames: 6
Frame Time: 0.011111
48.977123 42.605785 -33.949654 -14.245374 7.516697 -78.569305 46.623962 -19.535803 -2.716960 -23.607420 -1.021756 2.055645 -3.007980 -17.046608 -17.082565 -13.584062 39.439449 -43.180061 -0.892466 -0.957000 1.218467 -36.377808 -12.741117 -25.425945 -41.089291 5.118420 4.767532 8.524705 12.647240 -53.186905 -4.058817 0.661413 2.306497 36.176048 35.132732 4.700864 72.296379 -8.834805 18.244158 -8.534408 -12.637552 72.611191 -37.181221 6.679492 -8.988957 64.106499 -2.252133 -8.486452 -32.325821 -15.331251 -11.380325 -30.872253 -13.981324 -3.222741 104.396408 -3.289788 9.694399 -20.427866 2.058121 3.432497 
48.824078 42.549530 -33.756382 -14.057515 7.305259 -79.893188 46.490005 -19.424402 -2.735044 -23.588028 -1.083939 2.020957 -3.408789 -17.295286 -16.721001 -12.723536 39.266094 -42.181091 -0.892466 -0.957000 1.218467 -36.638260 -14.009519 -24.836712 -41.232239 5.175910 4.819557 8.524705 12.647240 -54.563854 -4.058817 0.661413 2.306497 37.693871 34.292507 4.728284 72.607201 -8.778823 18.397655 -8.534408 -12.637552 72.728371 -36.771572 7.021018 -8.741185 64.672829 -2.193612 -8.523888 -33.408520 -14.745334 -11.166518 -33.286236 -14.353238 -3.581429 106.937553 -3.651432 9.638200 -20.916832 0.902183 2.961236 
48.661968 42.510509 -33.582169 -13.768300 7.090631 -81.135544 46.297321 -19.121941 -2.744414 -23.617472 -1.087542 1.963100 -3.467046 -17.496895 -16.348890 -12.261461 38.961895 -41.176224 -0.892466 -0.957000 1.218467 -36.860470 -15.237691 -23.542278 -41.333458 5.209064 4.860084 8.524705 12.647240 -54.837296 -4.058817 0.661413 2.306497 39.106956 33.509357 4.848045 72.773987 -8.750291 18.487148 -8.534408 -12.637552 72.445175 -36.298279 7.392232 -8.673572 65.092590 -2.135020 -8.549497 -34.516407 -13.963421 -10.776393 -35.643120 -14.706657 -3.967666 109.382446 -4.003613 9.580985 -21.204088 0.487989 2.781951 
48.507416 42.491756 -33.447880 -13.616550 6.903572 -82.279709 46.299160 -18.951103 -2.927156 -23.724979 -0.904460 1.881986 -3.603108 -17.632938 -15.987917 -11.912848 38.372238 -40.191319 -0.892466 -0.957000 1.218467 -37.309196 -16.648775 -21.922907 -41.567455 5.292479 4.945864 8.524705 12.647240 -53.743538 -4.058817 0.661413 2.306497 40.312599 32.638317 4.981049 72.916405 -8.718896 18.553112 -8.534408 -12.637552 71.859230 -35.705017 7.596749 -8.618978 65.267548 -2.097086 -8.578250 -35.280220 -13.229667 -10.317023 -38.071609 -15.340004 -4.413351 111.810692 -4.335708 9.497581 -21.357639 0.678055 2.844230 
48.350433 42.517162 -33.344440 -14.135333 6.591929 -83.350952 46.818653 -19.392527 -3.574772 -23.822762 -0.731725 1.800876 -4.098091 -17.472448 -15.666413 -11.317994 37.567123 -39.261505 -0.892466 -0.957000 1.218467 -37.656391 -18.154491 -19.814747 -42.157066 5.485715 5.154077 8.524705 12.647240 -51.819714 -4.058817 0.661413 2.306497 41.583855 31.628233 5.004938 73.021118 -8.700999 18.604834 -8.534408 -12.637552 71.419785 -34.522797 7.186512 -8.081665 65.130898 -2.116617 -8.570109 -35.896408 -12.161552 -9.560253 -40.553627 -17.059254 -4.750314 114.201813 -4.676443 9.395709 -21.452482 1.465084 3.147807 
48.168964 42.586124 -33.260361 -14.752147 6.055173 -84.314461 47.509579 -19.791965 -4.344321 -23.979254 -0.688173 1.681939 -4.439365 -17.052114 -15.366430 -10.669966 36.704498 -38.281822 -0.892466 -0.957000 1.218467 -37.804726 -19.478182 -17.411556 -42.900936 5.725832 5.424610 8.524705 12.647240 -49.690804 -4.058817 0.661413 2.306497 42.869499 30.489244 5.249479 73.104683 -8.686842 18.652872 -8.534408 -12.637552 70.785011 -32.933887 6.688798 -7.481293 64.760338 -2.174186 -8.538157 -36.348686 -11.381135 -9.006949 -42.750866 -19.207664 -4.981023 116.497879 -4.998958 9.276423 -21.720879 2.761073 3.637656 
